# xmcd CD database file
#
# Track frame offsets:
#	150
#	12099
#	26191
#	46184
#	59240
#	73584
#	84770
#	97001
#	111281
#
# Disc length: 1798 seconds
#
# Revision: 0
# Processed by: cddbd v1.5.2PL0 Copyright (c) Steve Scherf et al.
# Submitted via: CDex 1.51
#
DISCID=74070409
DTITLE=Various Artist - Double Gold Hits III
DYEAR=1900
DGENRE=Jazz
TTITLE0=The Andrew Sisters Rum And Coca Cola
TTITLE1=The Andrew Sisters Don't Sit Under The Apple Tree
TTITLE2=Louis Armstrong Hello Dolly
TTITLE3=Louis Armstrong When The Saints Go Marching In
TTITLE4=The Ink Spots Always
TTITLE5=The Ink Spots My Prayer
TTITLE6=The Mills Brothers Limehouse Blues
TTITLE7=The Mills Brothers Sweet Georgia Brown
TTITLE8=Judy Garland Somewhere Over The Rainbow
EXTD=
EXTT0=
EXTT1=
EXTT2=
EXTT3=
EXTT4=
EXTT5=
EXTT6=
EXTT7=
EXTT8=
PLAYORDER=
